<?xml version="1.0" standalone="no"?>
<!DOCTYPE svg PUBLIC "-//W3C//DTD SVG 20010904//EN"
 "http://www.w3.org/TR/2001/REC-SVG-20010904/DTD/svg10.dtd">
<svg version="1.0" xmlns="http://www.w3.org/2000/svg"
 width="500.000000pt" height="500.000000pt" viewBox="0 0 500.000000 500.000000"
 preserveAspectRatio="xMidYMid meet">

<g transform="translate(0.000000,500.000000) scale(0.100000,-0.100000)"
fill="#000000" stroke="none">
<path d="M1794 3647 c22 -12 59 -47 82 -77 39 -51 905 -1575 925 -1628 14 -35
-8 -101 -43 -134 l-30 -28 393 0 c387 0 393 0 364 19 -66 40 -123 121 -264
371 -80 140 -278 493 -442 784 -164 290 -302 542 -307 560 -12 45 3 90 43 125
l36 31 -398 0 -398 0 39 -23z"/>
<path d="M2877 3655 c45 -19 121 -92 146 -140 18 -32 22 -57 22 -130 l0 -90
58 77 c99 132 227 234 348 278 l54 19 -330 0 c-290 0 -326 -1 -298 -14z"/>
<path d="M2220 2151 c0 -4 -26 -42 -58 -82 -102 -129 -219 -221 -337 -266
l-60 -22 330 0 c290 0 326 1 298 14 -45 19 -121 92 -146 140 -18 33 -22 57
-22 133 0 50 -1 92 -2 92 -2 0 -3 -4 -3 -9z"/>
<path d="M1948 1573 c10 -16 22 -33 25 -39 3 -6 -5 -27 -18 -47 -31 -45 -31
-47 0 -47 16 0 29 9 38 27 l14 26 18 -26 c12 -19 26 -27 47 -27 l29 0 -29 43
-30 42 25 35 24 35 -23 3 c-14 3 -29 -4 -40 -17 l-17 -22 -11 21 c-7 13 -21
20 -41 20 l-30 0 19 -27z"/>
<path d="M2120 1520 c0 -79 0 -80 25 -80 20 0 25 5 25 25 0 20 5 25 25 25 29
0 65 32 65 58 0 33 -33 52 -88 52 l-52 0 0 -80z m88 28 c-7 -19 -38 -22 -38
-4 0 10 9 16 21 16 12 0 19 -5 17 -12z"/>
<path d="M2306 1530 c-32 -87 -32 -90 -1 -90 14 0 25 5 25 10 0 6 14 10 30 10
17 0 30 -4 30 -10 0 -5 13 -10 30 -10 l29 0 -28 78 c-26 71 -31 77 -58 80 -29
3 -31 0 -57 -68z m62 -28 c-18 -8 -25 4 -15 28 l10 25 6 -25 c4 -14 4 -26 -1
-28z"/>
<path d="M2470 1520 c0 -79 0 -80 25 -80 22 0 25 4 25 38 l1 37 32 -38 c19
-22 41 -37 55 -37 21 0 22 4 22 80 0 79 0 80 -25 80 -22 0 -25 -4 -25 -37 l-1
-38 -32 38 c-19 22 -41 37 -54 37 -22 0 -23 -4 -23 -80z"/>
<path d="M2670 1520 l0 -80 49 0 c67 0 96 24 96 80 0 56 -29 80 -96 80 l-49 0
0 -80z m95 20 c9 -30 -4 -60 -26 -60 -16 0 -19 7 -19 40 0 33 3 40 19 40 11 0
23 -9 26 -20z"/>
<path d="M2850 1520 c0 -79 0 -80 25 -80 25 0 25 1 25 80 0 79 0 80 -25 80
-25 0 -25 -1 -25 -80z"/>
<path d="M2930 1580 c0 -15 7 -20 25 -20 24 0 25 -3 25 -60 0 -57 1 -60 25
-60 24 0 25 3 25 60 0 57 1 60 25 60 18 0 25 5 25 20 0 18 -7 20 -75 20 -68 0
-75 -2 -75 -20z"/>
<path d="M3190 1520 c0 -79 0 -80 25 -80 21 0 25 5 25 30 0 25 4 30 25 30 21
0 25 -5 25 -30 0 -25 4 -30 25 -30 25 0 25 1 25 80 0 79 0 80 -25 80 -21 0
-25 -5 -25 -30 0 -25 -4 -30 -25 -30 -21 0 -25 5 -25 30 0 25 -4 30 -25 30
-25 0 -25 -1 -25 -80z"/>
<path d="M3380 1520 c0 -79 0 -80 25 -80 21 0 25 5 25 30 0 17 4 30 10 30 5 0
16 -13 25 -30 11 -21 23 -30 40 -30 29 0 30 2 10 39 -13 26 -13 30 0 41 19 16
19 45 -1 64 -10 11 -34 16 -75 16 l-59 0 0 -80z m89 41 c18 -11 5 -31 -20 -31
-18 0 -26 20 -12 33 8 9 15 9 32 -2z"/>
<path d="M3100 1505 c0 -10 10 -15 30 -15 20 0 30 5 30 15 0 10 -10 15 -30 15
-20 0 -30 -5 -30 -15z"/>
</g>
</svg>
