<?xml version="1.0" standalone="no"?>
<!DOCTYPE svg PUBLIC "-//W3C//DTD SVG 20010904//EN"
 "http://www.w3.org/TR/2001/REC-SVG-20010904/DTD/svg10.dtd">
<svg version="1.0" xmlns="http://www.w3.org/2000/svg"
 width="430.000000pt" height="75.000000pt" viewBox="0 0 430.000000 75.000000"
 preserveAspectRatio="xMidYMid meet">

<g transform="translate(0.000000,75.000000) scale(0.100000,-0.100000)"
fill="#000000" stroke="none">
<path d="M3730 375 l0 -375 95 0 95 0 0 181 0 181 29 29 c41 40 91 40 132 0
l29 -29 0 -181 0 -181 95 0 95 0 0 198 c0 108 -5 214 -11 235 -13 46 -67 109
-113 131 -53 25 -148 21 -207 -9 l-49 -24 0 109 0 110 -95 0 -95 0 0 -375z"/>
<path d="M228 713 l233 -3 -3 -68 -3 -67 -142 -3 -143 -3 0 -69 0 -70 110 0
111 0 -3 -67 -3 -68 -107 -3 -108 -3 0 -139 0 -139 -87 -4 -88 -3 93 -2 92 -2
0 140 0 139 108 3 107 3 3 78 3 77 -111 0 -110 0 0 60 0 59 143 3 142 3 3 78
3 77 -238 -2 -238 -3 233 -2z"/>
<path d="M1120 360 l0 -360 95 0 95 0 2 182 3 183 66 -180 66 -180 79 0 79 0
65 175 65 175 3 -178 2 -177 95 0 95 0 0 360 0 360 -107 0 -108 0 -89 -223
c-49 -122 -92 -225 -95 -229 -3 -4 -47 95 -98 220 l-91 227 -111 3 -111 3 0
-361z"/>
<path d="M2740 646 l0 -65 -32 -3 -33 -3 -3 -77 -3 -78 36 0 35 0 0 -122 c1
-136 9 -189 38 -227 36 -49 78 -65 179 -69 l94 -4 -3 83 -3 84 -52 3 c-64 4
-65 6 -61 147 l3 100 58 3 58 3 -3 77 -3 77 -57 3 -58 3 0 64 0 65 -95 0 -95
0 0 -64z"/>
<path d="M2182 571 c-137 -47 -210 -208 -168 -370 20 -80 68 -148 125 -178 65
-34 177 -33 238 2 l43 26 0 -26 0 -25 95 0 95 0 0 290 0 290 -95 0 -95 0 0
-32 0 -31 -24 22 c-24 23 -103 51 -140 51 -12 -1 -45 -9 -74 -19z m202 -190
c59 -59 43 -174 -29 -208 -77 -37 -155 21 -155 114 0 116 107 171 184 94z"/>
<path d="M3313 580 c-96 -20 -177 -89 -207 -178 -23 -65 -20 -169 4 -236 25
-65 99 -139 157 -156 23 -7 78 -11 130 -9 79 4 95 8 139 34 50 31 107 109 116
160 l5 25 -103 0 c-84 0 -104 -3 -104 -14 0 -22 -40 -46 -78 -46 -46 0 -79 35
-87 95 -14 88 30 165 94 165 27 0 71 -32 71 -50 0 -6 44 -10 104 -10 l105 0
-8 28 c-21 73 -87 149 -151 176 -47 19 -135 27 -187 16z"/>
<path d="M530 360 l0 -80 230 0 230 0 0 80 0 80 -230 0 -230 0 0 -80z m450 0
l0 -70 -220 0 -220 0 0 70 0 70 220 0 220 0 0 -70z"/>
</g>
</svg>
